<?xml version="1.0" standalone="no"?>
<!DOCTYPE svg PUBLIC "-//W3C//DTD SVG 20010904//EN"
 "http://www.w3.org/TR/2001/REC-SVG-20010904/DTD/svg10.dtd">
<svg version="1.0" xmlns="http://www.w3.org/2000/svg"
 width="118.000000pt" height="118.000000pt" viewBox="0 0 118.000000 118.000000"
 preserveAspectRatio="xMidYMid meet">
<metadata>
Created by potrace 1.14, written by Peter Selinger 2001-2017
</metadata>
<g transform="translate(0.000000,118.000000) scale(0.100000,-0.100000)"
fill="#000000" stroke="none">
<path d="M90 917 c-49 -25 -50 -33 -48 -464 l3 -402 23 -23 23 -23 519 0 519
0 23 23 23 23 0 414 0 414 -23 23 -23 23 -507 2 c-394 2 -513 0 -532 -10z
m765 -49 c39 -30 55 -77 55 -155 0 -162 -88 -334 -254 -498 -139 -136 -260
-191 -374 -167 -179 38 -231 218 -122 429 66 128 158 227 282 306 127 82 251
71 279 -23 13 -42 4 -130 -12 -130 -6 0 -8 12 -4 29 5 22 1 35 -14 50 -26 26
-43 26 -120 2 -188 -58 -378 -241 -427 -409 -20 -69 -12 -116 29 -157 42 -42
100 -51 197 -31 285 60 490 309 490 596 0 97 -26 160 -65 160 -15 0 -24 4 -20
10 10 17 51 11 80 -12z m285 -413 c0 -16 -37 -68 -115 -162 l-116 -138 86 -3
85 -3 0 -29 0 -30 -136 0 -136 0 7 27 c3 15 58 88 120 163 l114 135 -90 3
c-77 2 -90 5 -85 18 3 9 6 22 6 30 0 11 24 14 130 14 l130 0 0 -25z"/>
</g>
</svg>
