<?xml version="1.0" encoding="utf-8"?>
<!-- Uploaded to: SVG Repo, www.svgrepo.com, Generator: SVG Repo Mixer Tools -->
<svg width="800px" height="800px" viewBox="0 0 1024 1024" fill="#000000" class="icon"  version="1.1" xmlns="http://www.w3.org/2000/svg"><path d="M664.476 831.98c-4.422 0-8.078-3.578-8.078-8s3.5-8 7.906-8h0.172c4.406 0 8 3.578 8 8s-3.594 8-8 8zM664.476 799.982c-4.422 0-8.078-3.578-8.078-8 0-4.42 3.5-7.998 7.906-7.998h0.172c4.406 0 8 3.578 8 7.998 0 4.422-3.594 8-8 8zM664.476 767.984c-4.422 0-8.078-3.578-8.078-8s3.5-8 7.906-8h0.172c4.406 0 8 3.578 8 8s-3.594 8-8 8zM664.476 735.986c-4.422 0-8.078-3.578-8.078-8 0-4.42 3.5-7.998 7.906-7.998h0.172c4.406 0 8 3.578 8 7.998 0 4.422-3.594 8-8 8zM664.476 703.988c-4.422 0-8.078-3.578-8.078-8s3.5-8 7.906-8h0.172c4.406 0 8 3.578 8 8s-3.594 8-8 8zM664.476 671.99c-4.422 0-8.078-3.578-8.078-8 0-4.42 3.5-7.998 7.906-7.998h0.172c4.406 0 8 3.578 8 7.998 0 4.422-3.594 8-8 8zM664.476 639.992c-4.422 0-8.078-3.578-8.078-8s3.5-8 7.906-8h0.172c4.406 0 8 3.578 8 8s-3.594 8-8 8zM664.476 607.994c-4.422 0-8.078-3.578-8.078-8 0-4.42 3.5-7.998 7.906-7.998h0.172c4.406 0 8 3.578 8 7.998 0 4.422-3.594 8-8 8zM664.476 575.996c-4.422 0-8.078-3.578-8.078-8s3.5-8 7.906-8h0.172c4.406 0 8 3.578 8 8s-3.594 8-8 8zM664.476 543.998c-4.422 0-8.078-3.578-8.078-8 0-4.42 3.5-7.998 7.906-7.998h0.172c4.406 0 8 3.578 8 7.998 0 4.422-3.594 8-8 8zM664.476 512c-4.422 0-8.078-3.578-8.078-8 0-4.42 3.5-8 7.906-8h0.172c4.406 0 8 3.578 8 8 0 4.422-3.594 8-8 8zM664.476 480.002c-4.422 0-8.078-3.578-8.078-8 0-4.42 3.5-8 7.906-8h0.172c4.406 0 8 3.578 8 8 0 4.422-3.594 8-8 8zM664.476 448.004c-4.422 0-8.078-3.578-8.078-8 0-4.42 3.5-8 7.906-8h0.172c4.406 0 8 3.578 8 8 0 4.422-3.594 8-8 8zM664.476 416.006c-4.422 0-8.078-3.578-8.078-8 0-4.42 3.5-8 7.906-8h0.172c4.406 0 8 3.578 8 8 0 4.422-3.594 8-8 8zM664.476 384.008c-4.422 0-8.078-3.578-8.078-8 0-4.42 3.5-8 7.906-8h0.172c4.406 0 8 3.578 8 8 0 4.422-3.594 8-8 8zM664.476 352.01c-4.422 0-8.078-3.578-8.078-8 0-4.42 3.5-8 7.906-8h0.172c4.406 0 8 3.578 8 8 0 4.422-3.594 8-8 8zM664.476 320.012c-4.422 0-8.078-3.578-8.078-8 0-4.42 3.5-8 7.906-8h0.172c4.406 0 8 3.578 8 8 0 4.422-3.594 8-8 8z" fill="" /><path d="M983.972 336.01c-4.422 0-8-3.578-8-8 0-4.422 3.578-8 8-8 13.232 0 23.998-10.766 23.998-23.998V136.024c0-13.234-10.766-24-23.998-24H40.03c-13.232 0-23.998 10.764-23.998 24v159.99c0 13.232 10.766 23.998 23.998 23.998 4.422 0 8 3.578 8 8 0 4.42-3.578 8-8 8-22.06 0-39.998-17.936-39.998-39.998V136.024c0-22.062 17.938-39.998 39.998-39.998h943.944c22.06 0 39.996 17.936 39.996 39.998v159.99c-0.002 22.06-17.936 39.996-39.998 39.996z" fill="" /><path d="M951.974 224.018H72.028c-4.422 0-8-3.578-8-8 0-4.42 3.578-8 8-8h879.948a7.994 7.994 0 0 1 7.998 8 7.998 7.998 0 0 1-8 8zM88.028 336.01H40.03c-4.422 0-8-3.578-8-8 0-4.422 3.578-8 8-8h47.998a7.994 7.994 0 0 1 7.998 8c0 4.422-3.578 8-7.998 8zM983.972 336.01h-47.998a7.994 7.994 0 0 1-7.998-8c0-4.422 3.578-8 7.998-8h47.998c4.422 0 8 3.578 8 8 0 4.422-3.578 8-8 8zM823.982 927.974H184.022c-39.702 0-71.996-32.294-71.996-71.996V248.016c0-4.42 3.578-8 8-8a7.994 7.994 0 0 1 7.998 8v607.962c0 30.874 25.124 55.998 55.998 55.998h639.96c30.874 0 55.996-25.124 55.996-55.998V248.016c0-4.42 3.578-8 8-8a7.994 7.994 0 0 1 7.998 8v607.962c0 39.702-32.292 71.996-71.994 71.996z" fill="" /><path d="M711.988 831.98c-4.422 0-8-3.578-8-8V312.012c0-4.42 3.578-8 8-8s8 3.578 8 8V823.98c0 4.422-3.578 8-8 8zM807.982 831.98a7.994 7.994 0 0 1-7.998-8V535.998a7.994 7.994 0 0 1 7.998-7.998c4.422 0 8 3.578 8 7.998V823.98c0 4.422-3.578 8-8 8zM240.018 416.006c-35.294 0-63.996-28.702-63.996-63.996s28.702-63.996 63.996-63.996 63.996 28.702 63.996 63.996-28.702 63.996-63.996 63.996z m0-111.994c-26.466 0-47.998 21.53-47.998 47.998s21.532 47.998 47.998 47.998 47.996-21.53 47.996-47.998-21.53-47.998-47.996-47.998z" fill="" /><path d="M216.05 373.382a8.01 8.01 0 0 1-7.234-4.578 8.006 8.006 0 0 1 3.812-10.656c17.17-8.156 37.514-8.172 54.808 0a8.008 8.008 0 0 1 3.812 10.656c-1.89 4-6.672 5.656-10.656 3.812-12.936-6.124-28.216-6.124-41.122 0a8 8 0 0 1-3.42 0.766z" fill="" /><path d="M240.018 416.006c-35.294 0-63.996-28.702-63.996-63.996s28.702-63.996 63.996-63.996 63.996 28.702 63.996 63.996-28.702 63.996-63.996 63.996z m0-111.994c-26.466 0-47.998 21.53-47.998 47.998s21.532 47.998 47.998 47.998 47.996-21.53 47.996-47.998-21.53-47.998-47.996-47.998z" fill="" /><path d="M240.018 480.002c-35.294 0-63.996-28.702-63.996-63.996 0-4.422 3.578-8 8-8a7.994 7.994 0 0 1 7.998 8c0 26.466 21.532 47.998 47.998 47.998s47.996-21.53 47.996-47.998c0-4.422 3.578-8 8-8s8 3.578 8 8c0 35.294-28.702 63.996-63.996 63.996zM504.002 847.98h-79.996c-22.06 0-39.998-17.938-39.998-39.998v-127.992c0-22.06 17.938-39.998 39.998-39.998h79.996c22.06 0 39.998 17.938 39.998 39.998v127.992c0 22.06-17.938 39.998-39.998 39.998z m-79.996-191.988c-13.232 0-23.998 10.764-23.998 23.998v127.992c0 13.232 10.766 23.998 23.998 23.998h79.996c13.232 0 23.998-10.766 23.998-23.998v-127.992c0-13.234-10.766-23.998-23.998-23.998h-79.996z" fill="" /><path d="M440.006 847.98c-4.422 0-8-3.578-8-8v-63.996c0-4.422 3.578-8 8-8a7.994 7.994 0 0 1 7.998 8v63.996c0 4.422-3.578 8-7.998 8zM536 719.988h-95.994c-4.422 0-8-3.578-8-8s3.578-8 8-8H536c4.422 0 8 3.578 8 8s-3.578 8-8 8z" fill="" /><path d="M536 783.984h-143.992c-4.422 0-8-3.578-8-8s3.578-8 8-8H536c4.422 0 8 3.578 8 8s-3.578 8-8 8zM440.006 719.988c-4.422 0-8-3.578-8-8v-63.996c0-4.422 3.578-8 8-8a7.994 7.994 0 0 1 7.998 8v63.996c0 4.422-3.578 8-7.998 8z" fill="" /><path d="M488.002 847.98c-4.422 0-8-3.578-8-8v-63.996c0-4.422 3.578-8 8-8s8 3.578 8 8v63.996c0 4.422-3.578 8-8 8z" fill="" /><path d="M488.002 719.988c-4.422 0-8-3.578-8-8v-63.996c0-4.422 3.578-8 8-8s8 3.578 8 8v63.996c0 4.422-3.578 8-8 8z" fill="" /><path d="M232.048 847.98c-4.422 0-8-3.578-8-8V551.998c0-4.422 3.578-8 8-8s8 3.578 8 8V839.98c0 4.422-3.578 8-8 8z" fill="" /><path d="M264.016 847.98c-4.422 0-8-3.578-8-8v-159.99c0-4.422 3.578-8 8-8s8 3.578 8 8v159.99c0 4.422-3.578 8-8 8z" fill="" /></svg>