<?xml version="1.0" ?>
<!-- Uploaded to: SVG Repo, www.svgrepo.com, Generator: SVG Repo Mixer Tools -->
<svg fill="#000000" width="800px" height="800px" viewBox="0 0 32 32" xmlns="http://www.w3.org/2000/svg">
<title/>
<g data-name="Layer 15" id="Layer_15">
<path d="M25.12,6H6.88A3.89,3.89,0,0,0,3,9.89V21.11A3.89,3.89,0,0,0,6.88,25H25.12A3.89,3.89,0,0,0,29,21.11V9.89A3.89,3.89,0,0,0,25.12,6ZM6.88,8H25.12A1.89,1.89,0,0,1,27,9.89V11H5V9.89A1.89,1.89,0,0,1,6.88,8ZM25.12,23H6.88A1.89,1.89,0,0,1,5,21.11V13H27v8.11A1.89,1.89,0,0,1,25.12,23Z"/>
<path d="M24,19H19a1,1,0,0,0,0,2h5a1,1,0,0,0,0-2Z"/>
</g>
</svg>