<?xml version="1.0" encoding="iso-8859-1"?>
<!-- Uploaded to: SVG Repo, www.svgrepo.com, Generator: SVG Repo Mixer Tools -->
<svg fill="#000000" height="800px" width="800px" version="1.1" id="Layer_1" xmlns="http://www.w3.org/2000/svg" xmlns:xlink="http://www.w3.org/1999/xlink" 
	 viewBox="0 0 512 512" xml:space="preserve">
<g>
	<g>
		<path d="M400.716,274.634h41.717c19.101,0,34.641-15.54,34.641-34.641V171.74c0-16.355-11.397-30.09-26.665-33.703
			c-13.248-37.843-37.764-71.676-69.849-96.092C344.5,14.505,301.427,0,256.001,0s-88.498,14.505-124.559,41.945
			c-32.086,24.416-56.602,58.248-69.851,96.092c-15.267,3.614-26.665,17.348-26.665,33.703v68.252
			c0,19.101,15.54,34.641,34.641,34.641h41.717c8.929,18.717,21.384,35.439,36.502,49.305
			c-60.017,0.265-108.762,49.166-108.762,109.244V512h433.952v-78.817c0-60.078-48.746-108.98-108.762-109.244
			C379.331,310.072,391.786,293.349,400.716,274.634z M446.658,171.739v68.253c0,2.329-1.895,4.224-4.224,4.224h-26.192v-38.349
			c0-0.013,0-0.025,0-0.039c0-1.328-0.017-2.652-0.05-3.992c0-0.01-0.001-0.02-0.001-0.03c-0.004-0.152-0.011-0.304-0.015-0.456
			c-0.006-0.156-0.01-0.312-0.016-0.468l-0.026-0.722c-0.025-0.766-0.053-1.53-0.089-2.276c0-0.005-0.001-0.01-0.001-0.014
			c-0.018-0.37-0.044-0.739-0.065-1.109c-0.003-0.046-0.005-0.091-0.008-0.137l-0.053-0.85c-0.037-0.622-0.075-1.242-0.122-1.882
			c0-0.003,0-0.005-0.001-0.008c-0.041-0.546-0.091-1.091-0.137-1.636l-0.042-0.48c-0.048-0.561-0.096-1.121-0.151-1.68
			c-0.065-0.666-0.14-1.329-0.214-1.993l-0.041-0.362c-0.043-0.385-0.088-0.771-0.134-1.157c-0.102-0.849-0.213-1.694-0.328-2.538
			l-0.042-0.306c-0.069-0.502-0.138-1.004-0.211-1.492c-0.109-0.73-0.225-1.456-0.344-2.183c-0.08-0.496-0.16-0.984-0.24-1.449
			c-0.635-3.688-1.398-7.332-2.28-10.929c-0.013-0.054-0.026-0.109-0.04-0.163h30.842
			C444.763,167.515,446.658,169.41,446.658,171.739z M100.362,167.71c-0.924,3.766-1.712,7.582-2.364,11.445
			c-0.043,0.259-0.087,0.516-0.129,0.775l-0.027,0.167c-0.39,2.402-0.725,4.822-1.007,7.26c-0.019,0.17-0.041,0.341-0.059,0.512
			l-0.014,0.124c-0.074,0.66-0.15,1.32-0.215,1.982c0,0.002,0,0.004-0.001,0.007c-0.059,0.593-0.109,1.189-0.16,1.786l-0.04,0.464
			c-0.05,0.593-0.103,1.185-0.147,1.779c-0.043,0.585-0.078,1.172-0.115,1.759l-0.053,0.86c0,0.008-0.001,0.016-0.001,0.023
			c-0.024,0.428-0.053,0.856-0.074,1.285c-0.039,0.788-0.066,1.579-0.092,2.37l-0.018,0.489c-0.003,0.085-0.005,0.164-0.008,0.248
			c-0.047,1.605-0.078,3.209-0.078,4.821v38.349H69.568c-2.329,0-4.224-1.895-4.224-4.224v-68.252c0-2.329,1.895-4.224,4.224-4.224
			h30.842C100.394,167.58,100.379,167.646,100.362,167.71z M94.562,137.1c11.91-27.801,31.076-52.516,55.299-70.949
			c30.72-23.378,67.423-35.734,106.14-35.734s75.419,12.356,106.141,35.734c24.223,18.433,43.388,43.148,55.298,70.949h-16.723
			c-25.783-54.041-80.957-91.475-144.716-91.475S137.068,83.059,111.285,137.1H94.562z M365.942,136.902
			c-18.028,12.356-39.456,19.077-61.526,19.077c-29.098,0-56.45-11.335-77.018-31.919l-10.013-10.021l-10.706,9.278
			c-15.003,13.002-34.214,20.164-54.096,20.164c-3.379,0-6.737-0.207-10.06-0.61c22.196-39.825,64.74-66.827,113.478-66.827
			C302.264,76.043,342.945,100.372,365.942,136.902z M442.56,433.183v48.4H69.442v-48.4c0-43.469,35.364-78.833,78.833-78.833
			h35.241v3.828c0,39.968,32.516,72.484,72.484,72.484c39.968,0,72.484-32.516,72.484-72.484v-3.828h35.241
			C407.196,354.35,442.56,389.714,442.56,433.183z M214,360.547c0.038,0.01,0.075,0.018,0.113,0.028
			c1.48,0.401,2.968,0.774,4.459,1.132c0.442,0.106,0.886,0.208,1.329,0.31c1.192,0.275,2.388,0.536,3.587,0.784
			c0.388,0.08,0.775,0.164,1.163,0.241c1.54,0.306,3.084,0.591,4.635,0.851c0.293,0.05,0.587,0.091,0.881,0.139
			c1.285,0.208,2.572,0.401,3.864,0.577c0.461,0.063,0.924,0.125,1.386,0.183c1.306,0.167,2.616,0.318,3.928,0.454
			c0.282,0.029,0.563,0.064,0.845,0.091c1.086,0.105,2.175,0.196,3.264,0.28c0.1,0.008,0.2,0.017,0.3,0.025
			c0.386,0.029,0.774,0.057,1.161,0.083c0.407,0.027,0.813,0.049,1.221,0.073c0.369,0.022,0.738,0.047,1.108,0.066
			c0.208,0.011,0.414,0.026,0.622,0.038c0.654,0.032,1.31,0.054,1.966,0.078c0.453,0.017,0.907,0.035,1.362,0.049
			c0.253,0.007,0.505,0.02,0.758,0.026c1.347,0.033,2.698,0.052,4.052,0.052c1.354,0,2.704-0.018,4.052-0.052
			c0.253-0.006,0.505-0.019,0.758-0.026c0.454-0.013,0.907-0.031,1.362-0.049c0.655-0.024,1.312-0.046,1.966-0.078
			c0.208-0.01,0.414-0.026,0.622-0.038c0.37-0.02,0.739-0.044,1.108-0.066c0.407-0.024,0.814-0.045,1.221-0.073
			c0.387-0.026,0.775-0.054,1.161-0.083c0.1-0.008,0.2-0.017,0.3-0.025c1.09-0.084,2.178-0.174,3.264-0.28
			c0.282-0.027,0.563-0.063,0.845-0.091c1.312-0.135,2.622-0.287,3.928-0.454c0.462-0.059,0.925-0.121,1.386-0.183
			c1.291-0.176,2.579-0.369,3.864-0.577c0.293-0.048,0.588-0.089,0.881-0.139c1.55-0.261,3.094-0.545,4.635-0.851
			c0.388-0.077,0.776-0.161,1.163-0.241c1.198-0.247,2.395-0.508,3.587-0.784c0.443-0.102,0.887-0.204,1.329-0.31
			c1.491-0.358,2.979-0.73,4.459-1.132c0.034-0.01,0.073-0.018,0.111-0.028c-1.231,22.099-19.599,39.698-42.001,39.698
			S215.231,382.646,214,360.547z M295.658,275.305c-5.582-10.919-16.937-18.416-30.018-18.416h-19.28
			c-18.581,0-33.697,15.117-33.697,33.698c0,18.582,15.116,33.698,33.697,33.698h19.28c13.14,0,24.54-7.565,30.094-18.564
			l43.462-0.277c-22.546,18.868-51.565,30.244-83.195,30.244c-71.586,0.001-129.823-58.238-129.823-129.823
			c0-1.087,0.014-2.17,0.043-3.28l0.047-1.279c0.021-0.647,0.042-1.293,0.073-1.924c0.014-0.275,0.031-0.549,0.049-0.822
			l0.032-0.528c0.037-0.614,0.072-1.23,0.118-1.842c0-0.006,0.001-0.012,0.001-0.017c0.025-0.35,0.057-0.698,0.087-1.046
			l0.056-0.641c0.045-0.513,0.086-1.028,0.137-1.54c0.042-0.409,0.087-0.815,0.133-1.223l0.04-0.356
			c0.039-0.348,0.078-0.696,0.12-1.042c0.019-0.169,0.036-0.335,0.059-0.507c0.06-0.481,0.125-0.959,0.191-1.438l0.028-0.207
			c0.01-0.078,0.022-0.157,0.032-0.235c0.059-0.427,0.117-0.855,0.18-1.281c0.079-0.525,0.163-1.047,0.243-1.545
			c0.084-0.518,0.168-1.036,0.259-1.553c0.095-0.554,0.198-1.106,0.303-1.665c0.086-0.458,0.173-0.916,0.264-1.372
			c0.112-0.568,0.23-1.136,0.354-1.718c0.093-0.438,0.189-0.875,0.286-1.312c0.132-0.593,0.269-1.185,0.409-1.769
			c0.104-0.438,0.212-0.875,0.32-1.311c0.142-0.569,0.287-1.135,0.432-1.687c0.085-0.322,0.174-0.643,0.262-0.964
			c7.166,1.406,14.47,2.135,21.85,2.135c22.63,0,44.63-6.784,63.208-19.313c24.895,20.604,55.898,31.812,88.625,31.812
			c26.607,0,52.499-7.617,74.701-21.727c0.127,0.38,0.253,0.767,0.384,1.172l0.109,0.336c0.057,0.176,0.117,0.352,0.172,0.529
			c0.192,0.602,0.375,1.208,0.557,1.812c0.114,0.378,0.228,0.757,0.339,1.137c0.177,0.61,0.35,1.225,0.52,1.847
			c0.108,0.393,0.216,0.788,0.321,1.183c0.154,0.581,0.303,1.166,0.453,1.769c0.108,0.434,0.215,0.868,0.319,1.304
			c0.136,0.572,0.27,1.147,0.404,1.749c0.098,0.44,0.195,0.881,0.289,1.323c0.119,0.558,0.234,1.116,0.348,1.686
			c0.097,0.489,0.191,0.978,0.282,1.468c0.099,0.532,0.199,1.067,0.297,1.643c0.008,0.048,0.016,0.096,0.024,0.144
			c0.075,0.434,0.147,0.87,0.217,1.306c0.085,0.527,0.17,1.055,0.251,1.595c0.084,0.563,0.161,1.128,0.237,1.693l0.005,0.039
			c0.064,0.47,0.128,0.94,0.186,1.408c0.065,0.523,0.122,1.049,0.18,1.575l0.049,0.439c0.044,0.38,0.086,0.76,0.124,1.144
			c0.016,0.159,0.028,0.32,0.043,0.48c0.034,0.358,0.065,0.716,0.095,1.074l0.053,0.602c0.03,0.344,0.061,0.686,0.085,1.012
			c0.049,0.657,0.086,1.317,0.126,1.976l0.028,0.455c0.016,0.258,0.034,0.515,0.047,0.791c0.042,0.843,0.071,1.688,0.096,2.536
			l0.024,0.669c0.027,1.089,0.042,2.181,0.042,3.277c0,0.008,0,0.015,0,0.023c0,25.333-7.301,48.991-19.9,68.992L295.658,275.305z
			 M268.921,290.589c0,1.81-1.471,3.281-3.28,3.281h-19.28c-1.809,0-3.28-1.472-3.28-3.281c0-1.809,1.471-3.281,3.28-3.281h19.28
			C267.45,287.308,268.921,288.78,268.921,290.589z"/>
	</g>
</g>
</svg>