<svg width="35" height="35" viewBox="0 0 35 35" fill="none" xmlns="http://www.w3.org/2000/svg">
<path d="M16 8C13.243 8 11 10.243 11 13C11 15.757 13.243 18 16 18C18.757 18 21 15.757 21 13C21 10.243 18.757 8 16 8ZM16 16C14.346 16 13 14.654 13 13C13 11.346 14.346 10 16 10C17.654 10 19 11.346 19 13C19 14.654 17.654 16 16 16ZM16 6C19.86 6 23 9.14 23 13C23 18.271 18.281 23.256 15.991 25.365C13.299 22.889 9 17.901 9 13C9 9.14 12.14 6 16 6ZM16 4C11.029 4 7 8.029 7 13C7 21 16 28 16 28C16 28 25 21.016 25 13C25 8.029 20.971 4 16 4Z" fill="#1B5606" stroke="#1B5606" stroke-width="0.2" stroke-linecap="round" stroke-linejoin="round"/>
</svg>
