<?xml version="1.0" encoding="utf-8"?>

<!DOCTYPE svg PUBLIC "-//W3C//DTD SVG 1.1//EN" "http://www.w3.org/Graphics/SVG/1.1/DTD/svg11.dtd">
<!-- Uploaded to: SVG Repo, www.svgrepo.com, Generator: SVG Repo Mixer Tools -->
<svg version="1.1" id="_x32_" xmlns="http://www.w3.org/2000/svg" xmlns:xlink="http://www.w3.org/1999/xlink" 
	 width="800px" height="800px" viewBox="0 0 512 512"  xml:space="preserve">
<style type="text/css">
<![CDATA[
	.st0{fill:#000000;}
]]>
</style>
<g>
	<path class="st0" d="M225.557,316.597c20.281,0,83.625,0,83.625,0c16.797,0,30.406-13.609,30.406-30.406
		s-13.609-30.406-30.406-30.406c-15.203,0-45.609,0-121.625,0c-76.031,0-100.094,31.672-126.703,58.281l-48.281,42.172
		c-3.125,2.719-4.938,6.672-4.938,10.813v140.157c0,1.875,1.094,3.578,2.797,4.359c1.703,0.766,3.703,0.5,5.125-0.719l93.313-80
		c3.297-2.797,7.672-3.984,11.922-3.219l145.406,26.438c10.141,1.844,20.594-0.484,29.016-6.438
		c0,0,185.609-129.047,199.297-140.454l0,0c13.063-11.984,12.906-29.375,0.922-42.438c-12-13.094-34.375-10.313-49.297,0.734
		c-13.672,11.406-107.078,72.797-107.078,72.797h-113.5l-0.359,0.156c-5.984-0.188-10.656-5.203-10.469-11.172
		c0.219-5.984,5.219-10.672,11.188-10.469L225.557,316.597z"/>
	<path class="st0" d="M362.697,0.003c-27.656,0-51.813,14.781-65.172,36.844c42.719,15.672,73.344,56.641,73.344,104.719
		c0,3.547-0.203,7.047-0.531,10.516c38.516-3.844,68.594-36.328,68.594-75.859C438.932,34.128,404.807,0.003,362.697,0.003z"/>
	<path class="st0" d="M259.244,54.441c-48.125,0-87.141,39.016-87.141,87.125c0,48.125,39.016,87.125,87.141,87.125
		c48.109,0,87.125-39,87.125-87.125C346.369,93.457,307.354,54.441,259.244,54.441z M279.838,116.925l-2.094-0.875
		c-3.469-1.469-7.063-2.203-10.703-2.203c-10.516,0-20.172,6.094-24.813,15.438h35.078l-2.156,10.469h-35.781
		c-0.031,0.594-0.063,1.203-0.063,1.813c0,1.5,0.125,3.031,0.391,4.563h34.156l-2.172,10.469h-27.906
		c5.094,7.922,13.75,12.719,23.266,12.719c3.219,0,6.469-0.609,9.609-1.781l2.516-0.922v14.734l-1.375,0.359
		c-3.531,0.953-7.156,1.438-10.75,1.438c-17.125,0-32.516-10.609-38.719-26.547h-8.859v-10.469h6.281
		c-0.188-1.609-0.281-3.109-0.281-4.563c0-0.594,0.016-1.219,0.047-1.813h-6.047v-10.469h7.906
		c5.375-17.328,21.484-29.297,39.672-29.297c4.844,0,9.578,0.859,14.125,2.516l1.5,0.547L279.838,116.925z"/>
</g>
</svg>